# xmcd
# Copyright (C) 1995-1998 Ti Kan
#
# Track frame offsets:
#       150
#       23770
#       35591
#       46513
#       65218
#       79263
#       97471
#       117496
#       130215
#       146466
#       156526
#       171810
#       181402
#
# Disc length: 2719 seconds
#
# Revision: 0
# Processed by: cddbd v1.5.2PL0 Copyright (c) Steve Scherf et al.
# Submitted via: CD-Import v1.0
#
DISCID=bc0a9d0d
DTITLE=Lovejoys - And You Don't Stop
DYEAR=06
DGENRE=
TTITLE0=Good Times Bad Times
TTITLE1=Streets Of San Francisco
TTITLE2=I Want To Hold Your Hand
TTITLE3=I Cry For You 
TTITLE4=Down With The Lovejoys
TTITLE5=Streets Of Sao Paolo
TTITLE6=Flight Nr 9
TTITLE7=Lola Langusta In Ibiza
TTITLE8=Could You Be Mine ?
TTITLE9=Komm Gib Mir Deine Hand
TTITLE10=Apache 3000
TTITLE11=Hit Me Till I'm Blue
TTITLE12=Here Come The Lovejoys
EXTD=
EXTT0=
EXTT1=
EXTT2=
EXTT3=
EXTT4=
EXTT5=
EXTT6=
EXTT7=
EXTT8=
EXTT9=
EXTT10=
EXTT11=
EXTT12=
PLAYORDER=
